<svg xmlns="http://www.w3.org/2000/svg" width="1200" height="630" viewBox="0 0 1200 630" fill="none">
  <defs>
    <linearGradient id="bg" x1="80" x2="1120" y1="60" y2="570" gradientUnits="userSpaceOnUse">
      <stop stop-color="#F8FAFC" />
      <stop offset="1" stop-color="#E2E8F0" />
    </linearGradient>
    <linearGradient id="panel" x1="710" x2="1076" y1="112" y2="518" gradientUnits="userSpaceOnUse">
      <stop stop-color="#0F172A" />
      <stop offset="1" stop-color="#334155" />
    </linearGradient>
    <linearGradient id="accent" x1="846" x2="1036" y1="172" y2="386" gradientUnits="userSpaceOnUse">
      <stop stop-color="#FB923C" />
      <stop offset="1" stop-color="#EA580C" />
    </linearGradient>
    <linearGradient id="nib" x1="858" x2="1036" y1="312" y2="522" gradientUnits="userSpaceOnUse">
      <stop stop-color="#FFF7ED" />
      <stop offset="1" stop-color="#FDBA74" />
    </linearGradient>
    <filter id="shadow" x="650" y="78" width="460" height="474" color-interpolation-filters="sRGB" filterUnits="userSpaceOnUse">
      <feFlood flood-opacity="0" result="BackgroundImageFix" />
      <feColorMatrix in="SourceAlpha" result="hardAlpha" values="0 0 0 0 0 0 0 0 0 0 0 0 0 0 0 0 0 0 127 0" />
      <feOffset dy="18" />
      <feGaussianBlur stdDeviation="22" />
      <feComposite in2="hardAlpha" operator="out" />
      <feColorMatrix values="0 0 0 0 0.0588235 0 0 0 0 0.0941176 0 0 0 0 0.164706 0 0 0 0.18 0" />
      <feBlend in2="BackgroundImageFix" result="effect1_dropShadow_1_1" />
      <feBlend in="SourceGraphic" in2="effect1_dropShadow_1_1" result="shape" />
    </filter>
  </defs>

  <rect width="1200" height="630" fill="url(#bg)" />
  <circle cx="182" cy="112" r="158" fill="#FFFFFF" fill-opacity="0.78" />
  <circle cx="1126" cy="542" r="178" fill="#CBD5E1" fill-opacity="0.38" />
  <path d="M0 496C190 436 328 418 496 450C638 478 774 554 1200 630H0V496Z" fill="#FFFFFF" fill-opacity="0.48" />

  <rect x="92" y="92" width="1016" height="446" rx="34" fill="#FFFFFF" fill-opacity="0.72" stroke="#FFFFFF" stroke-opacity="0.86" stroke-width="2" />

  <g>
    <rect x="142" y="140" width="78" height="78" rx="18" fill="#0F172A" />
    <g transform="translate(152 150) scale(0.1328125)">
      <rect width="512" height="512" rx="112" fill="url(#panel)" />
      <g transform="rotate(30 256 256)">
        <rect x="192" y="78" width="128" height="220" rx="44" fill="url(#accent)" />
        <path d="M192 276h128v28c0 24-20 44-44 44h-40c-24 0-44-20-44-44z" fill="#C2410C" />
        <rect x="192" y="260" width="128" height="42" rx="20" fill="#FED7AA" />
        <path d="M206 286h100c8 0 14 6 14 14 0 68-31 124-64 158-33-34-64-90-64-158 0-8 6-14 14-14z" fill="url(#nib)" />
        <path d="M256 286v136" stroke="#0F172A" stroke-linecap="round" stroke-width="18" />
        <circle cx="256" cy="338" r="16" fill="#0F172A" />
        <path d="M228 170h56" stroke="#FFEDD5" stroke-linecap="round" stroke-width="18" />
      </g>
    </g>

    <text x="252" y="174" fill="#F97316" font-family="'Avenir Next', 'Segoe UI', sans-serif" font-size="20" font-weight="700" letter-spacing="0.24em">
      UNDERWRITTEN
    </text>
    <text x="142" y="266" fill="#0F172A" font-family="'Avenir Next', 'Segoe UI', sans-serif" font-size="58" font-weight="700">
      Local-first
    </text>
    <text x="142" y="328" fill="#0F172A" font-family="'Avenir Next', 'Segoe UI', sans-serif" font-size="58" font-weight="700">
      markdown editing
    </text>
    <text x="142" y="390" fill="#0F172A" font-family="'Avenir Next', 'Segoe UI', sans-serif" font-size="58" font-weight="700">
      for people and
    </text>
    <text x="142" y="452" fill="#0F172A" font-family="'Avenir Next', 'Segoe UI', sans-serif" font-size="58" font-weight="700">
      their agents.
    </text>
    <text x="142" y="506" fill="#475569" font-family="'Avenir Next', 'Segoe UI', sans-serif" font-size="24" font-weight="500">
      Tables, local storage, and offline-friendly access.
    </text>
    <text x="142" y="538" fill="#475569" font-family="'Avenir Next', 'Segoe UI', sans-serif" font-size="24" font-weight="500">
      Local bridge support for CLI and MCP workflows.
    </text>
  </g>

  <g filter="url(#shadow)">
    <rect x="698" y="122" width="364" height="386" rx="28" fill="url(#panel)" />
    <rect x="728" y="156" width="304" height="34" rx="17" fill="#FFFFFF" fill-opacity="0.08" />
    <circle cx="750" cy="173" r="5.5" fill="#FB7185" />
    <circle cx="770" cy="173" r="5.5" fill="#FBBF24" />
    <circle cx="790" cy="173" r="5.5" fill="#34D399" />
    <rect x="748" y="229" width="222" height="22" rx="11" fill="#F8FAFC" fill-opacity="0.92" />
    <rect x="748" y="269" width="185" height="14" rx="7" fill="#CBD5E1" fill-opacity="0.76" />
    <rect x="748" y="299" width="228" height="14" rx="7" fill="#CBD5E1" fill-opacity="0.7" />
    <rect x="748" y="329" width="202" height="14" rx="7" fill="#CBD5E1" fill-opacity="0.62" />
    <rect x="748" y="374" width="234" height="14" rx="7" fill="#F97316" fill-opacity="0.9" />
    <rect x="748" y="404" width="166" height="14" rx="7" fill="#CBD5E1" fill-opacity="0.7" />
    <rect x="748" y="434" width="194" height="14" rx="7" fill="#CBD5E1" fill-opacity="0.62" />
    <rect x="748" y="467" width="6" height="36" rx="3" fill="#F8FAFC" />
  </g>
</svg>
