<svg xmlns="http://www.w3.org/2000/svg" viewBox="0 0 512 512" fill="none">
  <defs>
    <linearGradient id="bg" x1="68" x2="444" y1="52" y2="460" gradientUnits="userSpaceOnUse">
      <stop stop-color="#0F172A" />
      <stop offset="1" stop-color="#334155" />
    </linearGradient>
    <linearGradient id="barrel" x1="188" x2="300" y1="96" y2="308" gradientUnits="userSpaceOnUse">
      <stop stop-color="#FB923C" />
      <stop offset="1" stop-color="#EA580C" />
    </linearGradient>
    <linearGradient id="nib" x1="194" x2="320" y1="250" y2="430" gradientUnits="userSpaceOnUse">
      <stop stop-color="#FFF7ED" />
      <stop offset="1" stop-color="#FDBA74" />
    </linearGradient>
  </defs>

  <rect width="512" height="512" rx="112" fill="url(#bg)" />

  <g transform="rotate(30 256 256)">
    <rect x="192" y="78" width="128" height="220" rx="44" fill="url(#barrel)" />
    <path d="M192 276h128v28c0 24-20 44-44 44h-40c-24 0-44-20-44-44z" fill="#C2410C" />
    <rect x="192" y="260" width="128" height="42" rx="20" fill="#FED7AA" />
    <path
      d="M206 286h100c8 0 14 6 14 14 0 68-31 124-64 158-33-34-64-90-64-158 0-8 6-14 14-14z"
      fill="url(#nib)"
    />
    <path d="M256 286v136" stroke="#0F172A" stroke-linecap="round" stroke-width="18" />
    <circle cx="256" cy="338" r="16" fill="#0F172A" />
    <path
      d="M228 170h56"
      stroke="#FFEDD5"
      stroke-linecap="round"
      stroke-width="18"
    />
  </g>
</svg>
